<svg xmlns="http://www.w3.org/2000/svg" fill="none" viewBox="0 0 32 31">
  <defs/>
  <path fill="#00856F" d="M30.786 0H1.304C.96.006.632.14.389.375A1.262 1.262 0 000 1.26v28.385C0 30.419.602 31 1.304 31h29.381c.702 0 1.304-.581 1.304-1.26V1.26C32.089.58 31.488 0 30.786 0zM9.526 26.447H4.714V11.625h4.814v14.822zM7.12 9.59c-1.504 0-2.808-1.163-2.808-2.713 0-1.453 1.203-2.712 2.808-2.712 1.504 0 2.808 1.162 2.808 2.712 0 1.55-1.304 2.713-2.808 2.713zm20.256 16.856h-4.713v-7.169c0-1.744 0-3.875-2.507-3.875s-2.808 1.84-2.808 3.778v7.363h-4.713V11.625h4.412v2.034h.1c.602-1.162 2.207-2.421 4.513-2.421 4.814 0 5.716 3.1 5.716 7.071v8.138z"/>
</svg>
